<?xml version="1.0" encoding="UTF-8" standalone="no"?>
<!DOCTYPE svg PUBLIC "-//W3C//DTD SVG 1.1//EN"
 "http://www.w3.org/Graphics/SVG/1.1/DTD/svg11.dtd">
<!-- Generated by graphviz version 3.0.0 (20220226.1711)
 -->
<!-- Pages: 1 -->
<svg width="773pt" height="355pt"
 viewBox="0.00 0.00 772.94 355.00" xmlns="http://www.w3.org/2000/svg" xmlns:xlink="http://www.w3.org/1999/xlink">
<g id="graph0" class="graph" transform="scale(1 1) rotate(0) translate(4 351)">
<polygon fill="#333333" stroke="transparent" points="-4,4 -4,-351 768.94,-351 768.94,4 -4,4"/>
<text text-anchor="middle" x="382.47" y="-9.2" font-family="Times New Roman,serif" font-size="16.00" fill="white">Network Map</text>
<!-- R6 -->
<g id="node1" class="node">
<title>R6</title>
<polygon fill="#006699" stroke="#006699" points="347.44,-347 270.44,-347 270.44,-274 347.44,-274 347.44,-347"/>
<text text-anchor="middle" x="308.94" y="-306.8" font-family="Helvetica,sans-Serif" font-size="14.00" fill="white">R6</text>
</g>
<!-- R2 -->
<g id="node2" class="node">
<title>R2</title>
<polygon fill="#006699" stroke="#006699" points="163.44,-99 86.44,-99 86.44,-26 163.44,-26 163.44,-99"/>
<text text-anchor="middle" x="124.94" y="-58.8" font-family="Helvetica,sans-Serif" font-size="14.00" fill="white">R2</text>
</g>
<!-- SW1 -->
<g id="node5" class="node">
<title>SW1</title>
<polygon fill="#006699" stroke="#006699" points="354.44,-223 263.44,-223 263.44,-150 354.44,-150 354.44,-223"/>
<text text-anchor="middle" x="308.94" y="-182.8" font-family="Helvetica,sans-Serif" font-size="14.00" fill="white">SW1</text>
</g>
<!-- R2&#45;&#45;SW1 -->
<g id="edge2" class="edge">
<title>R2&#45;&#45;SW1</title>
<path fill="none" stroke="green" stroke-dasharray="5,2" d="M162.96,-99.21C175.79,-110.38 190.52,-122.31 204.94,-132 223.23,-144.29 244.69,-155.77 263.36,-164.92"/>
<text text-anchor="middle" x="254.94" y="-120.8" font-family="Courier,monospace" font-size="14.00" fill="white"> &#160;&#160;&#160;&#160;&#160;&#160;&#160;&#160;&#160;&#160;&#160;</text>
<text text-anchor="middle" x="238.36" y="-153.72" font-family="Courier,monospace" font-size="14.00" fill="white">Eth0/2</text>
<text text-anchor="middle" x="137.96" y="-103.01" font-family="Courier,monospace" font-size="14.00" fill="white">Eth0/0</text>
</g>
<!-- SW2 -->
<g id="node8" class="node">
<title>SW2</title>
<polygon fill="#006699" stroke="#006699" points="108.44,-223 17.44,-223 17.44,-150 108.44,-150 108.44,-223"/>
<text text-anchor="middle" x="62.94" y="-182.8" font-family="Helvetica,sans-Serif" font-size="14.00" fill="white">SW2</text>
</g>
<!-- R2&#45;&#45;SW2 -->
<g id="edge3" class="edge">
<title>R2&#45;&#45;SW2</title>
<path fill="none" stroke="green" stroke-dasharray="5,2" d="M86.37,-88.67C77.37,-96.58 68.96,-106.13 63.94,-117 59.3,-127.04 57.9,-138.83 58,-149.77"/>
<text text-anchor="middle" x="113.94" y="-120.8" font-family="Courier,monospace" font-size="14.00" fill="white"> &#160;&#160;&#160;&#160;&#160;&#160;&#160;&#160;&#160;&#160;&#160;</text>
<text text-anchor="middle" x="29" y="-138.57" font-family="Courier,monospace" font-size="14.00" fill="white">Eth0/11</text>
<text text-anchor="middle" x="61.37" y="-77.47" font-family="Courier,monospace" font-size="14.00" fill="white">Eth0/1</text>
</g>
<!-- R1 -->
<g id="node3" class="node">
<title>R1</title>
<polygon fill="#006699" stroke="#006699" points="347.44,-99 270.44,-99 270.44,-26 347.44,-26 347.44,-99"/>
<text text-anchor="middle" x="308.94" y="-58.8" font-family="Helvetica,sans-Serif" font-size="14.00" fill="white">R1</text>
</g>
<!-- R1&#45;&#45;SW1 -->
<g id="edge1" class="edge">
<title>R1&#45;&#45;SW1</title>
<path fill="none" stroke="green" stroke-dasharray="5,2" d="M308.94,-99.12C308.94,-115.01 308.94,-133.7 308.94,-149.63"/>
<text text-anchor="middle" x="358.94" y="-120.8" font-family="Courier,monospace" font-size="14.00" fill="white"> &#160;&#160;&#160;&#160;&#160;&#160;&#160;&#160;&#160;&#160;&#160;</text>
<text text-anchor="middle" x="283.94" y="-138.43" font-family="Courier,monospace" font-size="14.00" fill="white">Eth0/1</text>
<text text-anchor="middle" x="283.94" y="-102.92" font-family="Courier,monospace" font-size="14.00" fill="white">Eth0/0</text>
</g>
<!-- R3 -->
<g id="node4" class="node">
<title>R3</title>
<polygon fill="#006699" stroke="#006699" points="593.44,-99 516.44,-99 516.44,-26 593.44,-26 593.44,-99"/>
<text text-anchor="middle" x="554.94" y="-58.8" font-family="Helvetica,sans-Serif" font-size="14.00" fill="white">R3</text>
</g>
<!-- R3&#45;&#45;SW1 -->
<g id="edge4" class="edge">
<title>R3&#45;&#45;SW1</title>
<path fill="none" stroke="green" stroke-dasharray="5,2" d="M516.23,-82.7C472.39,-104.44 401.03,-139.83 354.53,-162.89"/>
<text text-anchor="middle" x="496.94" y="-120.8" font-family="Courier,monospace" font-size="14.00" fill="white"> &#160;&#160;&#160;&#160;&#160;&#160;&#160;&#160;&#160;&#160;&#160;</text>
<text text-anchor="middle" x="379.53" y="-151.69" font-family="Courier,monospace" font-size="14.00" fill="white">Eth0/3</text>
<text text-anchor="middle" x="491.23" y="-71.5" font-family="Courier,monospace" font-size="14.00" fill="white">Eth0/0</text>
</g>
<!-- R5 -->
<g id="node6" class="node">
<title>R5</title>
<polygon fill="#006699" stroke="#006699" points="593.44,-223 516.44,-223 516.44,-150 593.44,-150 593.44,-223"/>
<text text-anchor="middle" x="554.94" y="-182.8" font-family="Helvetica,sans-Serif" font-size="14.00" fill="white">R5</text>
</g>
<!-- R3&#45;&#45;R5 -->
<g id="edge6" class="edge">
<title>R3&#45;&#45;R5</title>
<path fill="none" stroke="green" stroke-dasharray="5,2" d="M554.94,-99.12C554.94,-115.01 554.94,-133.7 554.94,-149.63"/>
<text text-anchor="middle" x="604.94" y="-120.8" font-family="Courier,monospace" font-size="14.00" fill="white"> &#160;&#160;&#160;&#160;&#160;&#160;&#160;&#160;&#160;&#160;&#160;</text>
<text text-anchor="middle" x="529.94" y="-138.43" font-family="Courier,monospace" font-size="14.00" fill="white">Eth0/0</text>
<text text-anchor="middle" x="529.94" y="-102.92" font-family="Courier,monospace" font-size="14.00" fill="white">Eth0/2</text>
</g>
<!-- R4 -->
<g id="node7" class="node">
<title>R4</title>
<polygon fill="#006699" stroke="#006699" points="716.44,-223 639.44,-223 639.44,-150 716.44,-150 716.44,-223"/>
<text text-anchor="middle" x="677.94" y="-182.8" font-family="Helvetica,sans-Serif" font-size="14.00" fill="white">R4</text>
</g>
<!-- R3&#45;&#45;R4 -->
<g id="edge5" class="edge">
<title>R3&#45;&#45;R4</title>
<path fill="none" stroke="green" stroke-dasharray="5,2" d="M593.71,-75.85C614.78,-84.36 639.76,-97.68 655.94,-117 663.72,-126.29 668.76,-138.37 672.03,-149.8"/>
<text text-anchor="middle" x="714.94" y="-120.8" font-family="Courier,monospace" font-size="14.00" fill="white"> &#160;&#160;&#160;&#160;&#160;&#160;&#160;&#160;&#160;&#160;&#160;</text>
<text text-anchor="middle" x="647.03" y="-138.6" font-family="Courier,monospace" font-size="14.00" fill="white">Eth0/0</text>
<text text-anchor="middle" x="618.71" y="-64.65" font-family="Courier,monospace" font-size="14.00" fill="white">Eth0/1</text>
</g>
<!-- SW1&#45;&#45;R6 -->
<g id="edge7" class="edge">
<title>SW1&#45;&#45;R6</title>
<path fill="none" stroke="green" stroke-dasharray="5,2" d="M308.94,-223.12C308.94,-239.01 308.94,-257.7 308.94,-273.63"/>
<text text-anchor="middle" x="358.94" y="-244.8" font-family="Courier,monospace" font-size="14.00" fill="white"> &#160;&#160;&#160;&#160;&#160;&#160;&#160;&#160;&#160;&#160;&#160;</text>
<text text-anchor="middle" x="283.94" y="-262.43" font-family="Courier,monospace" font-size="14.00" fill="white">Eth0/1</text>
<text text-anchor="middle" x="283.94" y="-226.92" font-family="Courier,monospace" font-size="14.00" fill="white">Eth0/5</text>
</g>
</g>
</svg>
